<?xml version="1.0" encoding="UTF-8" standalone="no"?>
<svg
   width="100%"
   height="100%"
   viewBox="0 0 317 317"
   version="1.1"
   xml:space="preserve"
   style="fill-rule:evenodd;clip-rule:evenodd;stroke-linejoin:round;stroke-miterlimit:2;"
   id="svg36"
   sodipodi:docname="cp_logo.svg"
   inkscape:version="1.3.2 (091e20e, 2023-11-25)"
   xmlns:inkscape="http://www.inkscape.org/namespaces/inkscape"
   xmlns:sodipodi="http://sodipodi.sourceforge.net/DTD/sodipodi-0.dtd"
   xmlns="http://www.w3.org/2000/svg"
   xmlns:svg="http://www.w3.org/2000/svg"><defs
   id="defs36" /><sodipodi:namedview
   id="namedview36"
   pagecolor="#ffffff"
   bordercolor="#666666"
   borderopacity="1.0"
   inkscape:showpageshadow="2"
   inkscape:pageopacity="0.0"
   inkscape:pagecheckerboard="0"
   inkscape:deskcolor="#d1d1d1"
   inkscape:zoom="1.1904917"
   inkscape:cx="117.17847"
   inkscape:cy="138.1782"
   inkscape:window-width="1384"
   inkscape:window-height="750"
   inkscape:window-x="106"
   inkscape:window-y="38"
   inkscape:window-maximized="0"
   inkscape:current-layer="g36" />
    <g
   transform="matrix(0.1,0,0,-0.1,0,316.228)"
   id="g36">
        <path
   d="M1520.81,3161.33C1455.57,3157.83 1411.6,3153.86 1367.62,3147.99C1053.14,3104.97 766.281,2972.26 525.459,2758.42C497.836,2733.81 428.463,2664.44 403.857,2636.82C177.322,2381.87 41.275,2073.58 8.096,1739.89C2.064,1680.67 0.794,1652.58 0.794,1581.14C0.794,1509.7 2.064,1481.6 8.096,1422.39C41.275,1088.7 177.322,780.409 403.857,525.459C428.463,497.836 497.836,428.463 525.459,403.857C780.409,177.322 1088.7,41.275 1422.39,8.096C1481.6,2.064 1509.7,0.794 1581.14,0.794C1652.58,0.794 1680.67,2.064 1739.89,8.096C2073.58,41.275 2381.87,177.322 2636.82,403.857C2664.44,428.463 2733.81,497.836 2758.42,525.459C2984.95,780.409 3121,1088.7 3154.18,1422.39C3160.21,1481.6 3161.48,1509.7 3161.48,1581.14C3161.48,1652.58 3160.21,1680.67 3154.18,1739.89C3121,2073.58 2984.95,2381.87 2758.42,2636.82C2733.81,2664.44 2664.44,2733.81 2636.82,2758.42C2471.88,2904.95 2286.46,3012.89 2083.58,3080.52C1953.09,3124.18 1827.68,3148.78 1683.53,3159.1C1660.2,3160.85 1540.98,3162.44 1520.81,3161.33Z"
   style="fill:#792351;fill-rule:nonzero;fill-opacity:1"
   id="path1" />
        <g
   transform="matrix(1.46686,0,0,1.46686,-741.146,-1184.1)"
   id="g35">
            <path
   d="M1375.08,2820.49C1374.13,2819.38 1372.54,2808.43 1371.75,2796.36C1370.8,2784.14 1368.57,2763.02 1366.83,2749.53C1365.08,2736.04 1362.86,2719.37 1362.07,2712.38C1360.16,2696.19 1359.37,2694.13 1355.24,2693.18C1353.33,2692.7 1327.78,2690.95 1298.57,2689.21C1246.5,2685.87 1233.48,2684.28 1233.48,2681.11C1233.48,2677.46 1240.46,2676.51 1322.38,2667.78C1335.08,2666.35 1348.1,2664.6 1351.27,2663.65C1358.1,2661.9 1358.26,2661.58 1359.53,2634.44C1361.43,2597.45 1369.05,2510.93 1370.8,2508.39C1374.61,2502.04 1377.62,2510.93 1381.12,2539.51C1383.02,2554.11 1385.72,2577.29 1387.46,2590.78C1389.05,2604.28 1391.59,2624.12 1392.86,2634.76C1394.13,2645.39 1395.88,2655.39 1396.83,2657.14C1398.89,2660.95 1401.12,2661.27 1460.49,2665.39C1502.72,2668.41 1514.46,2670.16 1514.46,2673.49C1514.46,2675.08 1505.42,2677.46 1493.83,2678.89C1489.06,2679.52 1467.95,2682.38 1447,2685.24C1426.04,2688.1 1405.09,2691.11 1400.48,2691.59C1393.82,2692.54 1391.75,2693.49 1390.8,2696.19C1390.16,2697.94 1388.74,2716.03 1387.62,2736.04C1385.4,2779.53 1383.02,2813.98 1381.91,2819.06C1380.96,2822.87 1377.62,2823.67 1375.08,2820.49Z"
   style="fill:white;fill-rule:nonzero;"
   id="path2" />
            <path
   d="M2156.6,2698.1C2149.62,2696.83 2136.92,2695.08 2128.51,2694.13C2108.98,2691.91 2098.34,2687.3 2089.61,2677.46C2079.29,2665.87 2076.43,2658.41 2076.43,2644.44C2076.43,2634.44 2077.23,2631.1 2081.2,2623.17C2083.9,2618.09 2087.23,2612.37 2088.82,2610.62C2093.42,2605.23 2102.15,2600.78 2110.41,2599.67C2119.77,2598.56 2123.43,2595.54 2125.81,2587.45C2128.51,2578.56 2126.76,2574.27 2118.19,2569.19C2100.57,2559.03 2080.4,2534.9 2066.43,2507.12C2060.72,2496.01 2051.83,2468.55 2049.45,2454.89C2044.69,2428.06 2050.4,2389.17 2063.74,2359.01C2072.62,2338.53 2081.67,2329.01 2102.15,2318.69C2105.33,2317.1 2108.34,2314.72 2108.82,2313.45C2110.41,2309.64 2106.12,2305.03 2099.45,2303.13C2095.96,2302.18 2082.47,2298.05 2069.29,2293.92C2056.27,2289.79 2038.02,2284.08 2028.81,2281.22L2012.14,2276.14L1992.62,2256.14C1966.26,2228.99 1966.26,2228.99 1958.33,2192.32C1952.29,2163.75 1951.34,2157.56 1947.06,2116.12C1944.83,2094.69 1941.98,2068.34 1940.7,2057.39C1938.32,2037.86 1936.74,2021.67 1933.4,1979.92C1932.45,1968.17 1931.97,1944.99 1932.29,1928.32L1932.93,1897.84L1940.23,1882.76L1947.69,1867.68L1949.12,1830.38C1950.55,1794.97 1950.87,1792.59 1954.83,1784.18C1960.87,1771.64 1966.58,1765.45 1977.38,1759.89C1982.62,1757.03 1987.54,1753.22 1988.49,1751C1989.6,1748.78 1991.82,1738.78 1993.41,1728.78C1995.95,1712.27 1996.27,1698.93 1996.43,1593.84C1996.43,1491.13 1997.38,1449.85 2001.03,1393.02C2001.51,1386.04 2003.25,1372.54 2005.16,1362.86C2008.65,1343.97 2009.29,1319.36 2006.59,1307.3C2004.36,1297.61 1997.06,1283.96 1988.17,1273.17C1963.72,1243.32 1959.76,1227.76 1972.77,1214.11C1986.42,1199.82 2013.73,1201.09 2036.11,1216.97C2056.27,1231.1 2079.29,1245.86 2092.15,1252.69C2115.49,1264.91 2125.33,1279.99 2126.76,1305.39C2127.55,1319.2 2127.39,1320.31 2123.43,1325.55C2116.44,1335.24 2116.12,1336.35 2118.66,1360.64C2119.93,1373.18 2121.36,1384.61 2121.84,1385.88C2122.47,1387.15 2123.43,1403.66 2124.06,1422.39C2125.49,1461.92 2127.71,1492.87 2131.2,1520.81C2132.63,1531.77 2134.7,1548.75 2135.97,1558.76C2138.82,1581.46 2140.89,1583.84 2149.78,1573.68C2163.75,1557.64 2169.78,1552.72 2179.15,1550.18C2184.23,1548.75 2190.58,1546.53 2193.28,1545.26C2198.04,1542.88 2198.35,1542.25 2199.31,1530.66C2199.94,1523.83 2201.85,1507.8 2203.43,1494.62C2205.18,1481.6 2208.04,1460.49 2209.63,1447.79C2214.71,1410.33 2216.13,1396.2 2218.52,1365.24C2220.74,1335.24 2220.26,1329.2 2215.34,1312.38C2212.01,1301.11 2212.32,1287.14 2215.98,1279.83C2227.09,1258.24 2276.62,1225.54 2316.15,1213.79C2342.82,1205.86 2354.72,1205.54 2359.96,1212.37C2366.95,1221.57 2370.76,1248.4 2366.31,1256.97C2363.45,1262.21 2351.87,1273.48 2339.16,1283.01C2333.93,1287.14 2327.42,1292.69 2324.56,1295.71C2317.58,1303.01 2310.27,1317.46 2309.16,1326.51C2308.53,1330.79 2309.95,1360 2312.18,1391.43C2314.4,1422.87 2316.94,1461.12 2317.73,1476.37C2318.69,1491.6 2320.43,1523.83 2321.86,1547.8C2323.77,1583.2 2323.93,1597.01 2322.5,1620.83C2318.37,1690.2 2317.89,1704.8 2318.21,1744.65L2318.69,1786.72L2325.51,1795.45C2340.59,1814.5 2344.24,1832.12 2342.34,1878.95C2341.23,1908.8 2341.86,1913.56 2349.64,1929.59C2359.8,1950.71 2359.8,1951.34 2359.64,2043.89C2359.49,2191.05 2352.98,2233.6 2327.1,2254.55C2318.05,2261.85 2302.18,2269.79 2273.44,2281.22C2231.69,2297.73 2222.17,2300.59 2202.32,2301.7C2192.48,2302.34 2183.59,2303.61 2182.64,2304.56C2181.37,2305.83 2181.21,2309.48 2182,2315.35C2183.12,2324.4 2183.12,2324.56 2204.7,2346.94C2228.99,2372.18 2240.58,2388.85 2249.95,2412.19C2259.16,2435.37 2261.22,2445.84 2261.22,2471.72C2261.38,2491.56 2260.9,2496.33 2257.73,2506.64C2247.57,2539.03 2226.77,2565.54 2200.74,2579.51C2185.5,2587.61 2182.96,2589.99 2181.85,2597.45C2180.42,2606.02 2185.81,2611.1 2198.67,2613.16C2204.39,2614.12 2213.59,2617.13 2219.31,2619.83C2233.28,2626.82 2235.98,2632.22 2235.82,2651.9C2235.5,2675.24 2228.99,2688.89 2215.18,2695.72C2208.99,2698.57 2204.55,2699.37 2188.51,2699.68C2177.24,2700 2164.07,2699.37 2156.6,2698.1ZM2199.31,2685.87C2207.88,2683.49 2212.01,2678.73 2216.13,2666.19C2221.69,2649.68 2221.37,2643.01 2214.71,2636.18C2210.1,2631.58 2205.82,2629.36 2190.26,2624.6C2165.49,2616.66 2164.7,2615.86 2165.97,2600.47C2167.56,2584.27 2170.26,2579.19 2179.3,2574.91C2199.47,2565.38 2215.98,2550.62 2229.15,2530.46C2246.14,2504.26 2250.74,2483.63 2245.66,2454.26C2238.04,2410.6 2224.23,2385.04 2192.96,2356.63C2184.39,2348.69 2175.97,2340.91 2174.38,2339.16C2168.83,2333.13 2163.43,2319.16 2162.64,2309.16C2161.84,2299.8 2162,2299.16 2167.72,2292.33L2173.59,2285.35L2169.46,2281.7C2164.22,2277.25 2155.81,2274.87 2144.54,2274.87C2137.71,2274.87 2133.27,2275.98 2125.81,2279.79C2120.41,2282.49 2115.49,2285.83 2115.01,2286.94C2114.53,2288.37 2117.07,2292.02 2121.52,2295.99C2128.03,2302.18 2128.82,2303.61 2128.82,2309.95C2128.82,2319.16 2126.12,2322.81 2113.26,2330.28C2084.53,2347.1 2069.77,2371.07 2063.58,2411.39C2061.2,2426.95 2062.62,2451.08 2067.07,2466.64C2074.37,2493.15 2097.55,2533.79 2111.36,2544.59C2113.58,2546.33 2121.36,2552.21 2128.82,2557.76C2145.33,2570.14 2146.44,2573 2142.32,2591.58C2138.51,2608.24 2134.86,2612.05 2121.2,2613.48C2109.14,2614.75 2104.06,2617.29 2098.03,2624.91C2091.99,2632.69 2090.56,2647.45 2094.69,2658.25C2101.36,2675.71 2115.17,2682.06 2154.22,2685.24C2186.61,2687.78 2192.01,2687.94 2199.31,2685.87ZM2225.98,2282.33C2258.68,2273.44 2304.4,2253.44 2317.42,2242.33C2335.04,2227.09 2339.96,2203.59 2343.93,2115.33C2347.58,2031.83 2346.63,1998.49 2339.16,1950.39C2336.62,1933.72 2332.66,1927.85 2319.32,1919.75C2309.48,1913.72 2309.8,1913.88 2305.83,1916.73C2302.97,1918.8 2302.97,1920.86 2304.88,1985.31C2305.99,2021.98 2307.26,2067.86 2307.73,2087.55L2308.53,2123.27L2313.13,2130.89C2324.08,2148.98 2306.46,2151.21 2294.87,2133.27C2292.33,2129.46 2292.02,2123.11 2291.54,2073.74C2291.22,2043.42 2289.95,1995.32 2288.84,1966.9C2285.51,1883.71 2287.1,1849.58 2295.67,1815.13C2297.57,1807.83 2298.68,1800.21 2298.05,1797.99C2297.57,1795.93 2293.45,1791.16 2289.16,1787.51C2279,1778.94 2274.24,1772.11 2262.65,1748.62C2251.85,1726.87 2246.77,1710.52 2240.74,1677.98C2235.34,1649.08 2222.17,1596.38 2216.93,1582.57C2212.01,1569.71 2206.29,1564.95 2194.54,1563.99C2177.24,1562.57 2164.38,1573.84 2152.64,1600.98C2126.6,1661.15 2078.82,1739.41 2050.08,1769.26C2032.46,1787.51 2015.79,1807.99 2012.14,1815.45C2010.24,1819.42 2009.92,1823.87 2010.56,1833.07C2011.03,1839.9 2011.67,1854.35 2012.14,1865.3C2013.89,1911.97 2015.95,1938.01 2024.05,2023.25C2024.84,2031.19 2026.59,2046.11 2027.86,2056.59C2029.29,2066.91 2030.4,2081.67 2030.4,2089.14C2030.56,2096.76 2031.51,2105.33 2032.78,2108.98C2036.59,2119.46 2035.8,2123.74 2029.29,2129.93C2022.78,2136.12 2018.33,2138.19 2014.21,2137.08C2010.71,2136.28 2010.56,2130.89 2013.73,2120.25C2016.43,2111.2 2016.9,2081.83 2014.52,2064.53C2007.7,2015.48 1997.06,1908.8 1997.06,1890.54C1997.06,1878.48 1993.41,1877.2 1975.47,1883.4C1946.26,1893.4 1947.06,1891.65 1947.06,1945.47C1947.06,1980.23 1947.69,1990.08 1950.55,2008.17C1952.45,2019.92 1954.83,2040.72 1955.79,2054.21C1958.8,2097.39 1968.8,2176.76 1973.57,2195.5C1978.49,2215.5 1985.95,2228.99 1999.12,2242.49C2012.62,2255.98 2021.35,2261.54 2040.72,2268.52C2048.65,2271.38 2060.56,2275.66 2067.23,2278.2C2086.12,2285.19 2092.15,2284.24 2108.5,2271.54C2123.27,2259.95 2145.97,2256.14 2165.18,2262.01C2175.18,2265.03 2177.72,2266.62 2187.72,2276.62C2200.58,2289.64 2199.47,2289.48 2225.98,2282.33ZM2325.67,1899.43C2327.26,1897.53 2327.42,1889.11 2326.62,1861.01C2325.51,1824.82 2324.56,1819.42 2318.69,1812.12C2316.15,1808.94 2316.15,1808.94 2313.13,1812.44C2311.54,1814.34 2309.8,1819.74 2309.16,1824.34C2308.68,1828.95 2306.62,1844.03 2304.88,1857.68C2302.97,1871.49 2302.02,1884.51 2302.49,1886.73C2302.97,1888.79 2305.99,1893.08 2309,1896.26C2315.19,1902.29 2322.18,1903.72 2325.67,1899.43ZM1984.84,1862.44C1994.36,1856.89 1995.47,1852.12 1995.47,1817.67C1995.47,1784.5 1994.2,1775.61 1988.97,1774.02C1984.52,1772.59 1976.58,1777.67 1971.18,1785.29C1967.53,1790.37 1966.42,1794.34 1965.31,1805.77C1963.57,1822.12 1963.25,1860.54 1964.84,1864.51C1965.63,1866.73 1967.06,1867.05 1972.93,1866.25C1976.9,1865.78 1982.3,1864.03 1984.84,1862.44ZM2015.16,1784.97C2017.54,1784.02 2066.28,1729.25 2069.13,1724.49C2071.83,1719.57 2067.23,1718.46 2040.88,1717.98C2015.16,1717.5 2014.84,1717.5 2010.4,1721.31C2005.95,1725.12 2005.79,1726.08 2005.32,1740.36C2004.68,1755.29 2006.75,1774.02 2009.76,1781.8C2011.35,1786.24 2011.51,1786.4 2015.16,1784.97ZM2303.45,1767.51C2306.78,1758.78 2303.29,1734.65 2297.57,1728.46C2292.02,1722.27 2271.7,1723.69 2271.7,1730.2C2271.7,1735.28 2284.87,1757.99 2294.72,1769.57C2297.41,1772.91 2301.86,1771.8 2303.45,1767.51ZM2292.81,1707.98C2301.38,1705.6 2303.92,1700.84 2303.13,1688.61C2302.65,1683.21 2303.29,1669.88 2304.56,1658.93C2308.21,1625.75 2308.84,1563.04 2305.99,1525.58C2304.4,1507.64 2302.65,1480.49 2301.86,1465.25C2301.07,1450.01 2299,1421.91 2297.26,1402.86C2291.38,1341.59 2290.75,1327.93 2293.13,1318.73C2297.26,1302.85 2304.56,1292.53 2329.16,1267.45C2354.09,1242.05 2354.72,1240.78 2350.12,1230.94C2346.78,1224.11 2343.93,1223.95 2320.75,1230.46C2291.86,1238.56 2273.6,1248.24 2246.77,1269.52C2227.72,1284.76 2226.77,1287.14 2232.01,1310.63C2235.03,1324.6 2235.5,1329.84 2234.71,1344.29C2233.44,1365.56 2229.31,1413.34 2227.41,1427.95C2226.45,1434.14 2225.02,1446.2 2224.07,1454.93C2223.12,1463.66 2220.9,1481.13 2219.31,1493.83C2217.56,1506.53 2215.82,1523.51 2215.18,1531.61C2214.23,1545.58 2214.39,1546.53 2218.2,1552.25C2232.64,1574.15 2239.95,1597.49 2254.23,1668.45C2261.38,1703.69 2263.12,1707.5 2272.33,1708.61C2282.01,1709.88 2286.78,1709.73 2292.81,1707.98ZM2059.77,1702.42L2080.4,1701.63L2085.64,1696.55C2088.66,1693.69 2095.64,1681.94 2101.68,1670.04C2107.71,1658.29 2116.12,1641.62 2120.73,1633.05C2129.78,1615.9 2129.93,1614.32 2126.28,1593.05C2125.01,1585.27 2123.27,1572.41 2122.47,1564.47C2121.68,1556.69 2118.82,1531.93 2115.96,1509.7C2112.63,1482.71 2110.57,1457 2109.77,1432.39C2109.14,1412.23 2108.18,1395.09 2107.71,1394.29C2105.8,1391.43 2098.5,1333.17 2099.61,1330C2100.25,1327.93 2102.47,1324.28 2104.53,1321.74C2110.88,1314.28 2111.84,1310 2109.77,1299.36C2106.6,1282.69 2104.53,1280.31 2084.37,1268.25C2066.91,1257.93 2060.08,1253.8 2041.99,1242.53C2037.54,1239.83 2030.72,1234.59 2026.91,1231.26C2016.75,1222.05 2011.35,1219.19 2003.73,1219.19C1995.32,1219.19 1988.01,1222.53 1981.82,1228.88L1977.22,1233.64L1982.62,1243.8C1985.47,1249.51 1992.46,1259.36 1998.17,1265.55C2012.46,1281.58 2017.54,1289.36 2021.03,1300.79C2025,1313.65 2025,1335.87 2020.87,1358.26C2017.54,1376.35 2017.06,1382.23 2014.52,1427.15C2010.24,1503.19 2009.6,1536.85 2011.35,1615.27C2012.3,1658.93 2013.73,1696.23 2014.68,1698.3C2016.59,1703.22 2021.83,1705.12 2031.19,1704.01C2035.64,1703.53 2048.34,1702.74 2059.77,1702.42Z"
   style="fill:white;fill-rule:nonzero;"
   id="path3" />
            <path
   d="M2135.49,2244.23C2133.11,2241.53 2129.78,2175.65 2129.3,2124.06C2128.98,2101.84 2128.35,2072.47 2127.87,2058.81C2126.6,2030.4 2127.55,2023.25 2132,2021.98C2141.68,2019.44 2142.95,2027.86 2142.95,2101.84C2143.11,2131.05 2143.9,2173.75 2144.86,2196.77C2146.44,2234.39 2146.44,2238.84 2144.06,2242.33C2141.2,2246.77 2138.03,2247.41 2135.49,2244.23Z"
   style="fill:white;fill-rule:nonzero;"
   id="path4" />
            <path
   d="M2154.22,2238.52C2152.79,2234.87 2152.79,2222.33 2154.22,2181.69C2155.33,2153.11 2156.76,2128.35 2157.56,2126.92C2159.3,2123.58 2165.34,2123.11 2168.19,2125.97C2170.73,2128.51 2170.73,2183.91 2168.35,2199.47C2167.24,2205.66 2166.61,2216.45 2166.76,2223.6C2166.92,2230.74 2166.29,2238.2 2165.34,2239.95C2162.8,2244.87 2156.6,2244.07 2154.22,2238.52Z"
   style="fill:white;fill-rule:nonzero;"
   id="path5" />
            <path
   d="M2110.72,2236.45C2109.14,2233.76 2108.18,2224.55 2107.39,2202.64C2106.91,2186.13 2105.64,2168.19 2104.69,2162.95C2102.63,2150.73 2102.79,2135.33 2105.17,2132.63C2107.71,2129.46 2114.06,2129.93 2115.33,2133.27C2115.8,2134.7 2117.07,2141.68 2117.87,2148.67C2118.5,2155.65 2119.93,2165.97 2120.89,2171.68C2122.95,2185.34 2122.95,2232.96 2120.89,2236.93C2118.66,2241.06 2113.58,2240.74 2110.72,2236.45Z"
   style="fill:white;fill-rule:nonzero;"
   id="path6" />
            <path
   d="M2090.41,2233.91C2085.17,2232.8 2084.05,2223.28 2084.69,2185.02C2085.17,2146.6 2085.8,2143.11 2092.47,2143.11C2094.06,2143.11 2096.44,2144.7 2097.71,2146.6C2099.77,2149.62 2100.25,2156.29 2100.25,2187.88C2100.25,2208.51 2099.61,2227.25 2098.82,2229.31C2097.23,2233.44 2094.69,2234.87 2090.41,2233.91Z"
   style="fill:white;fill-rule:nonzero;"
   id="path7" />
            <path
   d="M2176.29,2225.34C2172.64,2221.21 2172.64,2220.42 2176.76,2147.4C2178.67,2116.28 2179.15,2112.47 2181.85,2110.41C2185.97,2107.39 2186.93,2107.55 2189.78,2111.68C2192.8,2115.8 2192.96,2134.38 2190.74,2169.3C2189.78,2181.53 2188.67,2198.99 2188.2,2208.2C2186.93,2229.31 2184.07,2233.44 2176.29,2225.34Z"
   style="fill:white;fill-rule:nonzero;"
   id="path8" />
            <path
   d="M1040.6,2648.09C1033.77,2645.07 1020.75,2631.1 1010.6,2616.34C1002.34,2604.12 973.766,2546.17 963.923,2521.57C950.112,2486.96 947.255,2475.53 947.096,2453.46C946.937,2442.03 948.683,2419.33 951.223,2397.11C953.605,2376.63 956.303,2352.34 957.256,2343.13C958.208,2333.93 959.637,2323.77 960.272,2320.43C961.542,2315.35 961.224,2313.92 958.367,2311.22C956.462,2309.48 952.176,2307.26 948.525,2306.3C936.618,2302.97 920.902,2297.26 912.489,2292.97C889.311,2281.22 883.755,2273.92 861.371,2225.34C845.497,2190.58 842.322,2182.32 834.225,2154.22C822.954,2114.85 815.334,2078.18 805.492,2016.59C804.222,2008.49 801.999,1994.84 800.571,1986.42C797.554,1967.69 797.237,1929.75 800.094,1913.08C802.158,1900.7 801.841,1901.18 816.287,1888.63C822.002,1883.87 822.319,1882.76 824.542,1867.68C831.844,1819.42 836.448,1796.56 840.575,1786.4C847.084,1770.05 858.355,1760.21 864.388,1765.29C868.039,1768.3 867.245,1773.23 862.006,1781C855.18,1791.01 849.783,1810.21 844.385,1842.76C838.988,1876.09 838.988,1876.73 842.798,1880.22C845.497,1882.6 847.243,1882.76 858.038,1881.33C877.881,1878.48 878.516,1877.84 879.469,1862.92C880.263,1849.11 881.374,1846.25 885.66,1846.25C890.422,1846.25 894.391,1852.28 895.344,1861.01C896.137,1868.63 896.614,1869.43 901.694,1871.97C904.71,1873.4 911.377,1875.78 916.457,1877.36C925.03,1879.9 928.522,1880.06 967.257,1878.16C1012.34,1876.09 1121.4,1877.84 1144.58,1881.17C1181.57,1886.57 1201.09,1890.22 1251.74,1901.18C1280.79,1907.37 1286.03,1907.68 1292.85,1903.56C1295.55,1901.97 1300.31,1899.75 1303.33,1898.8C1306.5,1897.84 1312.22,1894.35 1316.35,1890.86C1321.9,1886.41 1325.87,1884.51 1331.59,1883.71C1337.78,1882.92 1340.32,1881.65 1344.29,1877.05C1348.57,1872.28 1349.68,1871.65 1352.54,1873.24C1354.29,1874.19 1356.19,1876.73 1356.67,1878.79C1357.14,1881.02 1358.41,1882.76 1359.21,1882.76C1360.8,1882.76 1359.68,1844.19 1357.94,1838C1356.51,1832.91 1352.86,1837.04 1348.57,1848.79C1344.29,1860.54 1341.43,1863.71 1335.24,1863.71C1330.32,1863.71 1329.36,1857.04 1332.7,1845.77C1338.89,1824.34 1351.11,1788.31 1353.33,1784.81C1356.19,1780.53 1357.14,1780.37 1361.43,1783.38C1363.65,1785.13 1364.61,1788.31 1365.4,1797.36C1365.88,1803.7 1367.94,1815.77 1369.84,1824.03C1372.38,1834.5 1373.81,1848 1374.77,1869.27C1375.56,1885.78 1376.99,1910.54 1378.1,1924.04C1379.69,1943.25 1379.69,1957.37 1378.1,1989.12C1373.18,2093.42 1373.5,2090.41 1365.24,2122.47C1357.46,2153.43 1338.57,2214.07 1329.36,2237.57C1315.08,2274.55 1309.04,2286.46 1302.85,2291.22C1294.76,2297.41 1270.94,2303.61 1229.51,2310.43C1198.71,2315.51 1188.71,2317.73 1186.01,2319.8C1183.63,2321.86 1184.27,2329.64 1188.24,2351.87C1196.17,2395.04 1203.32,2444.1 1203.32,2456.16C1203.32,2472.04 1198.39,2493.79 1190.62,2511.57C1187.76,2518.08 1180.77,2534.74 1174.74,2548.71C1168.87,2562.68 1159.98,2583.48 1154.9,2594.75C1149.82,2606.18 1143.31,2621.1 1140.45,2628.09C1134.42,2642.38 1128.55,2648.57 1119.5,2650.15C1116.32,2650.63 1098.7,2651.11 1080.29,2651.11C1051.39,2651.11 1046.15,2650.63 1040.6,2648.09ZM1118.7,2631.26C1121.72,2629.2 1130.61,2608.72 1137.59,2588.08C1140.45,2579.83 1163.63,2526.33 1167.91,2518.55C1169.18,2516.01 1174.42,2504.11 1179.19,2492.36C1188.08,2470.93 1188.08,2470.93 1188.08,2454.26C1188.08,2441.08 1186.81,2432.03 1182.36,2411.39C1179.19,2396.95 1176.17,2380.92 1175.54,2375.68C1175.06,2370.44 1172.84,2355.99 1170.61,2343.61C1168.55,2331.23 1166.8,2318.53 1166.8,2315.51C1166.8,2304.72 1172.04,2302.49 1208.08,2297.1C1276.02,2287.1 1286.18,2284.08 1295.23,2271.7C1297.77,2268.2 1302.85,2256.93 1306.66,2246.77C1312.69,2229.95 1320,2211.37 1331.43,2184.07C1335.4,2174.38 1344.6,2142.63 1351.43,2114.53C1355.71,2097.55 1358.57,2075.32 1359.53,2054.21C1361.11,2019.13 1362.38,1922.45 1361.43,1917.37C1360.16,1910.86 1357.46,1909.11 1351.59,1911.5C1349.21,1912.29 1337.78,1914.04 1326.03,1915.31C1311.42,1916.73 1303.17,1918.48 1299.68,1920.38C1295.07,1923.08 1294.44,1924.35 1293.49,1933.56C1292.85,1939.28 1291.58,1980.71 1290.95,2025.64L1289.52,2107.39L1294.44,2111.68C1297.14,2114.06 1300.95,2117.39 1302.85,2119.14C1307.3,2122.95 1306.19,2126.28 1300,2128.82C1293.64,2131.52 1282.06,2129.46 1276.66,2124.85C1271.74,2120.57 1271.26,2115.01 1274.44,2091.52C1277.93,2064.53 1275.71,1934.51 1271.42,1922.92C1270.63,1920.86 1268.25,1919.27 1264.91,1918.48C1262.05,1918 1252.85,1915.78 1244.59,1913.72C1227.76,1909.43 1193.47,1904.03 1159.66,1900.22C1151.88,1899.43 1136.48,1897.53 1125.53,1896.26C1114.58,1894.83 1086.8,1892.76 1063.62,1891.49C1026.95,1889.59 1016.31,1889.59 979.798,1891.49C936.618,1894.03 929.951,1895.3 928.046,1901.34C927.57,1902.92 926.776,1922.45 926.3,1944.67C925.347,1976.9 925.665,1990.24 927.887,2009.76C931.538,2044.69 934.396,2064.05 938.047,2079.61C939.952,2087.07 941.381,2096.12 941.381,2099.77C941.381,2105.8 940.746,2106.91 935.507,2110.41C926.776,2116.12 915.664,2118.82 910.584,2116.44C904.551,2113.74 905.504,2109.14 913.441,2102.63C917.251,2099.45 920.902,2095.8 921.378,2094.37C922.013,2093.1 921.378,2085.8 919.95,2078.18C915.981,2054.85 911.219,2000.39 911.219,1977.69C911.219,1965.63 910.107,1949.12 908.837,1941.18C907.567,1933.09 905.662,1921.5 904.71,1915.31C902.646,1902.92 897.884,1894.67 891.692,1893.56C887.724,1892.76 869.626,1895.46 858.038,1898.48C854.545,1899.43 844.227,1902.13 835.337,1904.51C822.637,1907.68 818.35,1909.59 816.445,1912.45C812.318,1918.64 812.001,1945.15 815.81,1974.04C823.589,2034.53 824.859,2041.99 833.432,2085.17C837.242,2103.74 841.528,2123.58 842.957,2128.03C843.75,2130.73 845.497,2137.39 846.925,2143.11C851.846,2162.48 865.975,2198.51 880.104,2228.04C883.914,2235.98 888.676,2245.98 890.74,2250.26C895.502,2260.58 905.027,2270.9 914.235,2275.51C918.204,2277.41 928.363,2281.38 936.618,2284.24C944.873,2287.1 953.922,2290.43 956.779,2291.7C959.478,2292.97 963.923,2294.4 966.622,2294.87C969.321,2295.51 973.289,2297.57 975.512,2299.64C979.957,2303.76 980.592,2309.95 977.893,2324.24C972.972,2349.64 971.384,2361.23 969.956,2386.31C969.003,2401.39 967.416,2418.38 966.304,2424.1C965.193,2429.81 964.399,2441.56 964.558,2450.29C964.717,2470.61 968.209,2485.05 983.132,2526.49C989.482,2544.43 1008.85,2583.32 1017.42,2595.23C1019.17,2597.93 1020.75,2600.47 1020.75,2601.1C1020.75,2602.85 1030.44,2616.66 1035.68,2622.37C1045.04,2632.53 1049.65,2633.64 1084.26,2633.64C1109.18,2633.64 1116.01,2633.17 1118.7,2631.26Z"
   style="fill:white;fill-rule:nonzero;"
   id="path9" />
            <path
   d="M1068.22,2574.27C1052.51,2567.92 1033.61,2554.9 1022.82,2543.32C1011.39,2530.93 1005.83,2518.08 1000.91,2493.15C995.99,2468.55 995.673,2459.02 997.578,2409.01C999.007,2373.77 1000.44,2366.95 1010.6,2351.71C1020.6,2336.62 1031.55,2329.32 1054.09,2322.5C1080.76,2314.56 1105.69,2323.45 1121.24,2346.63C1124.42,2351.23 1129.34,2357.74 1132.51,2360.91C1142.83,2371.71 1143.47,2373.93 1146.96,2412.98C1148.23,2427.43 1150.14,2446.32 1150.93,2455.05C1154.58,2489.34 1148.23,2527.92 1136.01,2545.7C1128.55,2556.65 1115.85,2568.4 1109.5,2570.3C1100.77,2573 1092.99,2570.62 1092.99,2565.38C1092.99,2562.37 1094.73,2560.46 1100.45,2557.44C1114.74,2549.67 1123.15,2538.55 1130.45,2517.44C1136.48,2499.98 1137.44,2486.33 1135.21,2448.07C1132.2,2398.7 1131.09,2388.85 1126.48,2379.33C1121.72,2369.33 1105.85,2349.96 1097.27,2344.24C1074.73,2328.53 1031.87,2342.02 1018.06,2369.17L1014.09,2377.11L1013.93,2428.7C1013.77,2480.29 1013.77,2480.45 1018.06,2496.01C1020.44,2504.58 1024.25,2515.22 1026.47,2519.66C1032.34,2531.09 1044.88,2543.95 1055.52,2549.03C1068.22,2555.06 1085.84,2566.49 1086.95,2569.51C1088.07,2572.37 1085.05,2575.7 1080.29,2577.13C1078.54,2577.61 1073.14,2576.34 1068.22,2574.27Z"
   style="fill:white;fill-rule:nonzero;"
   id="path10" />
            <path
   d="M1635.91,2602.69C1620.67,2598.4 1617.02,2587.76 1624.95,2570.94C1629.56,2561.25 1634.8,2557.13 1647.5,2553.48C1657.82,2550.3 1659.88,2547.92 1657.34,2541.57C1654.8,2535.38 1650.51,2531.89 1627.49,2516.8C1603.05,2500.93 1589.08,2486.8 1581.62,2470.45C1574.95,2455.69 1571.14,2435.53 1572.41,2420.92C1579.87,2338.69 1583.36,2327.42 1610.35,2297.41C1620.03,2286.62 1621.3,2281.86 1616.86,2273.28C1613.68,2267.09 1607.97,2264.39 1595.43,2263.12C1584.79,2261.85 1575.9,2259 1574.15,2255.98C1573.52,2255.03 1572.25,2249.79 1571.45,2244.39C1570.5,2238.84 1568.6,2233.12 1567.01,2231.53C1565.42,2229.95 1558.91,2227.41 1552.4,2225.66C1512.56,2215.66 1494.3,2201.53 1483.35,2172.16C1479.22,2160.89 1478.27,2158.83 1465.57,2132C1453.66,2106.91 1448.27,2088.98 1434.3,2029.76C1425.72,1993.09 1422.39,1956.42 1425.41,1929.59C1426.36,1920.86 1427.47,1906.89 1427.95,1898.64C1428.26,1890.38 1430.8,1872.44 1433.5,1858.95C1438.27,1835.45 1438.42,1833.71 1436.52,1820.06C1433.03,1793.7 1441.44,1740.05 1450.96,1728.46C1453.35,1725.44 1454.46,1725.12 1456.84,1726.55C1460.65,1728.93 1461.28,1737.82 1458.27,1749.89C1455.09,1763.54 1452.39,1788.62 1452.24,1809.74C1451.92,1825.77 1452.24,1827.84 1455.09,1829.9C1456.68,1831.17 1459.54,1831.64 1461.28,1831.17C1463.03,1830.69 1467.95,1829.58 1472.4,1828.79C1476.68,1827.84 1480.81,1826.57 1481.6,1825.77C1482.4,1824.98 1481.44,1819.74 1479.7,1813.71C1476.05,1802.12 1475.41,1793.07 1478.11,1791.48C1478.9,1790.85 1481.44,1790.85 1483.51,1791.32C1486.37,1792.12 1488.27,1794.97 1491.92,1804.5C1496.68,1816.56 1500.65,1820.69 1505.89,1818.63C1509.23,1817.36 1544.31,1813.23 1581.14,1809.74C1632.1,1804.82 1681.31,1805.77 1724.81,1812.28C1733.54,1813.71 1745.76,1815.45 1751.79,1816.25C1789.89,1821.17 1824.34,1828.63 1833.87,1833.87C1841.65,1838.31 1853.39,1837.2 1857.84,1831.64C1860.54,1828.31 1860.85,1826.25 1859.74,1810.53C1859.11,1801.01 1858,1789.89 1857.36,1785.92C1856.57,1781.96 1855.3,1774.18 1854.35,1768.46C1853.39,1762.75 1850.38,1753.86 1847.68,1748.78C1841.8,1737.51 1842.28,1729.73 1848.95,1726.71C1852.6,1725.12 1853.39,1725.44 1856.73,1729.25C1858.79,1731.79 1860.85,1735.6 1861.33,1737.98C1861.81,1740.36 1863.24,1746.24 1864.51,1751C1870.38,1773.86 1873.24,1792.43 1874.82,1817.52C1876.41,1843.23 1884.98,1920.07 1887.52,1931.02C1888.48,1935.31 1891.02,1941.66 1893.08,1945.31C1897.84,1953.56 1898.16,1957.85 1896.57,1996.27C1895.14,2033.1 1892.6,2051.04 1883.4,2089.14C1874.67,2124.85 1873.71,2128.19 1861.81,2158.19C1846.73,2196.13 1830.38,2221.53 1816.25,2228.68C1810.85,2231.53 1774.34,2241.53 1762.11,2243.76C1753.38,2245.18 1749.89,2248.52 1748.94,2255.98C1748.3,2260.43 1746.56,2264.24 1743.38,2267.41C1738.93,2271.86 1737.98,2272.01 1719.88,2273.12C1697.18,2274.24 1696.39,2275.51 1711.31,2285.98C1727.51,2297.1 1749.1,2319.96 1757.19,2334.09C1771,2358.69 1775.61,2384.57 1774.5,2432.51C1773.86,2457.75 1773.07,2464.74 1770.37,2473.31C1764.49,2491.56 1755.13,2503.79 1736.39,2517.92C1730.2,2522.68 1721.15,2530.14 1716.39,2534.74C1709.09,2541.89 1707.98,2543.63 1708.45,2548.24C1708.93,2552.68 1710.04,2554.11 1716.87,2557.76C1721.31,2560.14 1728.46,2563.32 1732.74,2564.75C1743.7,2568.24 1748.46,2573.64 1747.35,2581.42C1745.6,2593.96 1737.51,2600.47 1719.25,2603.32C1704.17,2605.86 1645.75,2605.23 1635.91,2602.69ZM1727.51,2584.43C1730.36,2580.78 1730.36,2580.62 1727.66,2578.08C1726.08,2576.49 1719.41,2573.32 1712.9,2570.94C1696.87,2564.91 1693.85,2561.57 1693.85,2550.3C1693.85,2531.25 1698.77,2522.2 1713.22,2514.9C1726.08,2508.55 1743.86,2493.31 1749.1,2484.1C1758.62,2467.43 1763.38,2428.54 1758.94,2404.89C1757.99,2400.28 1756.24,2389.01 1754.81,2379.8C1752.11,2360.6 1749.57,2351.23 1744.81,2341.86C1740.2,2332.82 1714.01,2305.83 1700.68,2296.46C1681.31,2282.81 1675.44,2269 1685.28,2261.06C1689.41,2257.89 1691.47,2257.41 1705.12,2257.41C1713.54,2257.41 1722.58,2256.62 1725.12,2255.82C1730.2,2254.08 1733.38,2248.99 1732.43,2244.39C1731,2238.36 1724.49,2236.61 1695.76,2234.23C1680.2,2233.12 1658.45,2231.06 1647.02,2229.79C1635.75,2228.52 1621.94,2226.93 1616.38,2226.45C1603.52,2225.02 1591.78,2227.72 1588.44,2232.96C1582.57,2241.69 1586.85,2246.93 1600.98,2248.36C1612.89,2249.63 1625.27,2253.6 1629.88,2257.89C1634.48,2262.01 1635.91,2272.49 1633.84,2285.83C1632.26,2295.51 1631.46,2296.94 1623.53,2304.4C1605.43,2321.86 1600.03,2332.66 1595.27,2359.17C1593.36,2370.28 1591.46,2389.17 1591.14,2402.35C1589.55,2446.8 1596.06,2467.91 1618.76,2491.72C1627.02,2500.3 1635.27,2506.33 1659.72,2521.57C1668.13,2526.81 1671.78,2533.63 1672.1,2544.27C1672.1,2552.68 1670.04,2555.22 1655.59,2563.16C1638.45,2572.37 1632.26,2581.57 1640.35,2585.7C1645.43,2588.4 1655.75,2588.88 1692.1,2588.4C1723.85,2588.08 1724.65,2587.92 1727.51,2584.43ZM1786.72,2223.12C1804.34,2218.99 1806.25,2218.2 1812.28,2212.32C1821.01,2203.59 1826.57,2195.02 1837.84,2172.48C1854.03,2140.57 1868,2100.72 1873.24,2071.99C1876.25,2055.64 1882.92,1980.87 1882.76,1964.36C1882.76,1950.39 1879.43,1948.96 1816.56,1935.78C1757.67,1923.56 1718.93,1920.23 1652.58,1921.65C1586.06,1923.08 1569.55,1924.19 1490.02,1933.72C1451.44,1938.16 1442.87,1941.5 1439.85,1952.45C1437.79,1960.55 1441.6,1997.22 1447.15,2021.35C1463.35,2091.99 1469.22,2109.61 1492.24,2156.76C1508.11,2189.15 1511.92,2193.75 1530.82,2202.64C1553.04,2213.12 1560.98,2214.39 1598.12,2213.44C1617.49,2212.96 1638.61,2213.28 1649.4,2214.39C1659.4,2215.34 1683.37,2217.56 1702.58,2219.47C1721.79,2221.21 1741.48,2223.6 1746.24,2224.87C1762.75,2229.15 1759.57,2229.31 1786.72,2223.12ZM1870.54,1928.32C1871.01,1927.21 1870.7,1921.02 1870.06,1914.51C1869.43,1908 1868,1894.35 1867.05,1884.35C1863.71,1851.17 1863.55,1851.01 1850.38,1851.01C1838.79,1851.01 1837.52,1852.76 1839.74,1866.73C1840.69,1872.76 1841.49,1887.37 1841.49,1899.11C1841.49,1923.4 1841.96,1924.35 1855.3,1928.01C1865.3,1930.7 1869.59,1930.86 1870.54,1928.32ZM1464.3,1921.02C1470.49,1919.43 1476.21,1916.89 1477.48,1915.31C1478.59,1913.56 1479.54,1908.16 1479.54,1902.76C1479.54,1897.37 1480.65,1883.08 1481.92,1870.86C1484.78,1843.71 1484.78,1845.14 1482.24,1844.19C1479.22,1843.07 1462.08,1846.09 1456.36,1848.79C1450.33,1851.65 1449.54,1853.71 1444.46,1878.79C1440.65,1898 1440.01,1918 1443.03,1921.65C1445.57,1924.67 1450.65,1924.51 1464.3,1921.02ZM1823.07,1915.15C1825.14,1913.24 1825.61,1908.8 1825.61,1892.6C1825.45,1864.82 1823.71,1851.65 1819.1,1846.88C1814.34,1841.65 1809.74,1840.69 1769.26,1835.14C1750.05,1832.6 1729.41,1829.74 1723.22,1828.79C1712.27,1827.2 1670.2,1821.96 1651.78,1820.06C1639.88,1818.79 1571.45,1823.23 1551.93,1826.57C1543.99,1827.84 1531.13,1830.06 1523.19,1831.33C1507.16,1833.71 1501.92,1836.73 1499.22,1844.82C1498.11,1847.84 1496.84,1863.24 1496.21,1878.95C1495.1,1907.05 1495.1,1907.84 1498.43,1911.18C1501.29,1914.04 1503.67,1914.51 1514.15,1914.51C1520.81,1914.35 1533.51,1913.72 1542.25,1912.92C1586.22,1908.64 1624.16,1906.73 1664.48,1906.57C1731,1906.57 1767.83,1908.95 1805.77,1916.1C1816.25,1918 1820.53,1917.85 1823.07,1915.15Z"
   style="fill:white;fill-rule:nonzero;"
   id="path11" />
            <path
   d="M892.804,1838.63C888.835,1836.09 885.66,1826.25 881.056,1802.91C873.119,1762.59 874.071,1747.35 884.549,1749.89C890.74,1751.48 892.486,1756.72 893.915,1777.83C894.55,1788.94 896.614,1803.55 898.36,1810.53C900.265,1817.52 901.694,1826.09 901.694,1829.74C901.694,1838.15 897.884,1841.96 892.804,1838.63Z"
   style="fill:white;fill-rule:nonzero;"
   id="path12" />
            <path
   d="M1836.25,1822.91C1832.12,1818.94 1839.42,1804.5 1845.14,1805.29C1852.6,1806.4 1848.63,1824.03 1840.85,1824.03C1838.95,1824.03 1836.73,1823.55 1836.25,1822.91Z"
   style="fill:white;fill-rule:nonzero;"
   id="path13" />
            <path
   d="M1839.42,1783.23C1837.36,1781.32 1838.31,1774.02 1840.85,1770.37C1844.5,1765.13 1851.65,1766.08 1852.28,1771.8C1853.08,1778.94 1843.55,1787.51 1839.42,1783.23Z"
   style="fill:white;fill-rule:nonzero;"
   id="path14" />
            <path
   d="M1649.4,1778.62C1647.18,1772.91 1647.5,1763.38 1650.04,1760.21C1652.89,1756.4 1658.45,1756.56 1660.51,1760.37C1662.74,1764.65 1662.58,1778.46 1660.2,1780.85C1656.86,1784.18 1650.99,1783.07 1649.4,1778.62Z"
   style="fill:white;fill-rule:nonzero;"
   id="path15" />
            <path
   d="M1468.43,1774.18C1468.43,1773.86 1467.63,1769.89 1466.84,1765.29C1465.09,1756.24 1466.52,1752.59 1471.6,1752.59C1475.25,1752.59 1478.9,1757.19 1480.17,1763.38C1481.44,1770.68 1478.9,1774.81 1473.19,1774.81C1470.49,1774.81 1468.43,1774.5 1468.43,1774.18Z"
   style="fill:white;fill-rule:nonzero;"
   id="path16" />
            <path
   d="M1670.36,1771.32C1667.82,1768.78 1667.97,1757.67 1670.51,1752.59C1674.8,1744.02 1682.74,1747.51 1682.74,1757.99C1682.74,1769.41 1675.91,1776.88 1670.36,1771.32Z"
   style="fill:white;fill-rule:nonzero;"
   id="path17" />
            <path
   d="M1339.36,1746.08C1337.62,1743.86 1337.3,1741.48 1338.25,1738.3C1339.05,1735.76 1340.32,1721.79 1341.43,1707.03C1343.49,1676.07 1344.6,1671.63 1350.95,1671.63C1359.05,1671.63 1359.53,1673.69 1357.62,1705.44C1355.87,1735.44 1354.92,1740.68 1349.37,1746.24C1345.24,1750.37 1342.22,1750.21 1339.36,1746.08Z"
   style="fill:white;fill-rule:nonzero;"
   id="path18" />
            <path
   d="M1471.44,1738.93C1466.84,1733.38 1470.02,1720.84 1476.21,1720.84C1480.65,1720.84 1482.71,1724.17 1482.71,1731.16C1482.71,1740.68 1476.52,1744.97 1471.44,1738.93Z"
   style="fill:white;fill-rule:nonzero;"
   id="path19" />
            <path
   d="M1644,1737.35C1638.45,1731.79 1639.08,1722.27 1645.27,1721.15C1649.24,1720.36 1652.42,1723.54 1653.53,1729.73C1655.12,1738.3 1649.4,1742.9 1644,1737.35Z"
   style="fill:white;fill-rule:nonzero;"
   id="path20" />
            <path
   d="M1671.63,1726.39C1669.72,1724.17 1669.88,1721.31 1672.58,1710.84C1673.21,1707.98 1672.58,1704.17 1670.83,1700.2C1668.45,1694.8 1668.13,1691.95 1669.4,1681.63C1671.31,1663.37 1671.15,1603.84 1668.93,1567.64C1662.89,1469.86 1661.62,1433.18 1663.69,1406.52C1664.64,1392.07 1666.07,1374.92 1666.86,1368.41C1669.09,1349.52 1668.77,1333.33 1665.91,1323.81C1664.48,1319.04 1663.37,1310.79 1663.53,1305.23C1663.69,1292.06 1667.97,1283.96 1677.5,1277.93C1686.23,1272.37 1714.33,1260.31 1734.97,1253.32C1766.24,1242.69 1787.19,1233.8 1805.77,1223C1821.64,1213.79 1826.72,1212.05 1837.84,1212.21C1854.03,1212.52 1872.6,1221.1 1879.75,1231.57C1885.62,1240.31 1884.98,1252.85 1878.16,1263.8C1859.58,1293.49 1846.88,1316.19 1844.19,1324.6C1839.9,1337.62 1839.74,1368.1 1843.55,1404.13C1845.77,1423.5 1846.57,1442.23 1846.41,1470.81C1846.41,1492.72 1847.36,1531.61 1848.63,1557.33C1849.9,1583.04 1851.81,1627.18 1852.92,1655.43C1854.66,1705.76 1854.66,1706.71 1851.49,1711C1845.14,1719.73 1847.2,1719.57 1759.26,1713.69C1739.73,1712.42 1716.39,1711.31 1707.18,1711.31C1692.74,1711.31 1690.2,1711.79 1687.5,1714.49C1685.75,1716.23 1684.33,1718.77 1684.33,1720.04C1684.33,1723.06 1678.77,1728.78 1675.75,1728.78C1674.64,1728.78 1672.74,1727.66 1671.63,1726.39ZM1836.57,1701.95C1839.42,1700.04 1839.27,1671.15 1835.77,1612.1C1834.34,1589.39 1832.76,1534.78 1831.96,1490.65C1830.85,1414.93 1829.9,1396.51 1825.3,1360.48C1822.12,1336.03 1822.6,1329.2 1827.84,1319.2C1830.22,1314.44 1833.39,1309.36 1834.5,1307.93C1835.77,1306.5 1839.42,1300.15 1842.76,1293.64C1846.09,1287.14 1852.92,1274.6 1857.84,1265.7C1862.76,1256.82 1866.89,1247.77 1866.89,1245.54C1866.89,1240.15 1862.12,1236.02 1850.85,1231.89C1837.84,1226.97 1832.28,1228.08 1809.58,1240.31C1788.15,1251.89 1759.41,1263.8 1731.95,1272.21C1707.66,1279.67 1687.98,1289.68 1683.06,1296.98C1678.93,1303.01 1678.93,1307.46 1682.58,1331.11C1684.48,1342.54 1683.06,1373.34 1679.25,1401.75C1678.13,1410.17 1677.98,1425.88 1678.61,1443.82C1680.67,1500.97 1684.33,1575.9 1685.91,1589.87C1688.29,1612.41 1687.82,1661.15 1685.12,1677.18C1682.74,1690.2 1682.74,1691.31 1685.44,1694.33C1688.14,1697.34 1689.72,1697.34 1713.69,1696.55C1732.27,1695.91 1748.14,1696.39 1773.23,1698.61C1827.84,1703.53 1833.55,1703.85 1836.57,1701.95Z"
   style="fill:white;fill-rule:nonzero;"
   id="path21" />
            <path
   d="M891.534,1721.31C885.66,1709.57 880.58,1660.2 884.549,1652.58C885.977,1650.04 888.041,1648.61 890.581,1648.61C896.296,1648.61 899.471,1656.55 900.741,1673.85C901.376,1681.79 902.329,1694.8 903.122,1702.58C904.551,1718.62 902.964,1724.49 897.407,1725.28C894.867,1725.6 893.28,1724.49 891.534,1721.31Z"
   style="fill:white;fill-rule:nonzero;"
   id="path22" />
            <path
   d="M1085.84,1712.42C1080.92,1709.88 1079.97,1704.8 1083.78,1701.47C1088.86,1696.87 1137.44,1693.37 1146.8,1697.03C1152.68,1699.25 1155.06,1704.49 1151.88,1707.98C1149.66,1710.36 1145.21,1711 1123.47,1711.95C1109.34,1712.42 1096,1713.22 1093.78,1713.69C1091.56,1714.17 1088.07,1713.69 1085.84,1712.42Z"
   style="fill:white;fill-rule:nonzero;"
   id="path23" />
            <path
   d="M1470.49,1710.52C1464.62,1707.98 1460.65,1702.58 1458.74,1694.33C1456.84,1685.75 1456.84,1485.89 1458.9,1453.35C1459.7,1438.58 1461.6,1413.34 1462.87,1397.62C1466.2,1358.89 1466.2,1344.29 1463.03,1332.22C1458.9,1316.66 1440.49,1283.49 1429.22,1271.42C1425.09,1266.98 1419.21,1253.01 1419.21,1247.61C1419.21,1236.02 1436.04,1222.37 1451.76,1221.1C1456.36,1220.78 1463.98,1221.26 1468.75,1222.37C1484.3,1226.18 1524.62,1239.83 1535.89,1245.23C1549.39,1251.74 1570.34,1261.58 1590.66,1270.94C1616.06,1282.85 1619.87,1285.07 1625.43,1292.38C1630.67,1299.2 1630.67,1299.36 1629.56,1311.27C1628.92,1317.77 1628.29,1328.57 1628.13,1335.08C1627.97,1352.06 1634.8,1431.76 1638.29,1452.55C1641.78,1472.4 1647.81,1524.94 1649.72,1550.98C1652.58,1589.55 1652.58,1696.07 1649.72,1702.9C1645.43,1713.06 1645.75,1712.9 1556.22,1712.9C1492.08,1712.74 1474.62,1712.27 1470.49,1710.52ZM1590.19,1696.07C1619.87,1695.28 1632.57,1694.49 1634.48,1693.06C1637.02,1691.31 1637.34,1687.34 1637.81,1660.36C1637.97,1643.37 1638.61,1626.22 1638.92,1622.1C1640.35,1608.13 1636.7,1563.84 1629.08,1499.38C1621.94,1440.81 1620.99,1430.96 1619.24,1403.34C1618.44,1389.85 1617.17,1375.88 1616.7,1372.38C1616.22,1368.89 1614.95,1351.59 1613.84,1333.81C1612.1,1306.66 1611.46,1301.42 1609.08,1299.68C1605.9,1297.45 1554.31,1271.42 1534.94,1262.37C1527.48,1258.72 1510.81,1251.89 1497.95,1247.13C1476.37,1238.88 1473.67,1238.24 1461.12,1238.24C1436.2,1238.24 1432.55,1244.75 1446.04,1264.28C1450.17,1270.47 1459.7,1287.14 1467,1301.42L1480.33,1327.14L1480.33,1355.4C1480.33,1370.8 1478.75,1403.5 1476.84,1427.95C1472.87,1478.9 1470.49,1617.49 1472.87,1665.12C1474.14,1691.15 1474.46,1692.74 1477.79,1695.28C1481.76,1698.3 1489.54,1698.3 1590.19,1696.07Z"
   style="fill:white;fill-rule:nonzero;"
   id="path24" />
            <path
   d="M1140.93,1686.23C1136.32,1681.15 1129.98,1665.12 1126.16,1648.92C1121.4,1628.61 1121.4,1619.56 1125.69,1610.98C1128.7,1604.95 1129.02,1602.89 1127.91,1587.65C1127.28,1578.44 1126.16,1567.96 1125.53,1564.47C1123.15,1553.67 1126.48,1547.96 1133.47,1550.18C1137.91,1551.61 1139.82,1557.96 1143.31,1583.2L1146.64,1607.02L1142.36,1615.11C1137.44,1624.32 1137.44,1624.8 1145.06,1654.96C1151.41,1679.72 1151.88,1684.48 1148.55,1687.02C1144.74,1689.72 1143.94,1689.72 1140.93,1686.23Z"
   style="fill:white;fill-rule:nonzero;"
   id="path25" />
            <path
   d="M1089.34,1685.6C1088.22,1684.48 1087.43,1680.99 1087.43,1677.82C1087.43,1669.88 1093.3,1635.75 1095.37,1631.94C1097.75,1627.49 1104.58,1626.07 1107.75,1629.4C1110.13,1631.62 1109.97,1633.37 1107.43,1649.72C1104.26,1670.04 1099.65,1683.69 1095.37,1685.91C1091.72,1687.98 1091.72,1687.98 1089.34,1685.6Z"
   style="fill:white;fill-rule:nonzero;"
   id="path26" />
            <path
   d="M1328.89,1644.48C1325.71,1641.46 1325.55,1639.88 1325.55,1608.92C1325.55,1576.54 1326.51,1569.55 1331.27,1567.8C1335.08,1566.38 1337.94,1568.44 1340.32,1574.47C1342.06,1579.23 1342.38,1586.06 1341.43,1609.71C1340.79,1626.86 1339.68,1640.51 1338.57,1642.42C1335.87,1647.34 1332.7,1647.97 1328.89,1644.48Z"
   style="fill:white;fill-rule:nonzero;"
   id="path27" />
            <path
   d="M1086.95,1613.37C1084.89,1611.46 1085.84,1602.57 1089.81,1587.01C1094.89,1567.49 1097.43,1562.09 1102.19,1562.09C1109.97,1562.09 1111.4,1568.28 1107.27,1584.15C1104.42,1595.11 1099.18,1607.81 1095.68,1611.78C1093.3,1614.48 1088.86,1615.43 1086.95,1613.37Z"
   style="fill:white;fill-rule:nonzero;"
   id="path28" />
            <path
   d="M905.821,1596.7C901.217,1589.24 899.63,1579.87 899.471,1560.98C899.312,1543.83 899.63,1541.29 902.646,1537.16C906.932,1531.29 912.012,1530.66 914.552,1535.42C917.41,1540.82 918.68,1594.63 915.981,1597.81C913.124,1601.3 908.52,1600.66 905.821,1596.7Z"
   style="fill:white;fill-rule:nonzero;"
   id="path29" />
            <path
   d="M1310.95,1560.98C1307.93,1557.64 1304.92,1539.55 1304.92,1525.74C1304.92,1515.26 1307.3,1511.29 1313.65,1511.29C1319.52,1511.29 1321.58,1518.91 1321.58,1540.34C1321.58,1557.17 1321.27,1559.39 1318.57,1561.45C1314.6,1564.31 1313.81,1564.31 1310.95,1560.98Z"
   style="fill:white;fill-rule:nonzero;"
   id="path30" />
            <path
   d="M1087.75,1541.13C1084.89,1538.28 1085.53,1528.91 1089.18,1517.96C1092.51,1507.96 1096.48,1504.78 1102.51,1507.16C1107.27,1508.91 1103.46,1532.88 1097.11,1540.5C1094.57,1543.52 1090.45,1543.83 1087.75,1541.13Z"
   style="fill:white;fill-rule:nonzero;"
   id="path31" />
            <path
   d="M1139.5,1540.34C1135.53,1535.74 1128.55,1512.88 1127.59,1501.45C1127.12,1495.57 1127.59,1484.14 1128.7,1476.05C1129.98,1467.95 1130.77,1453.82 1130.61,1444.62C1130.45,1435.41 1131.72,1417.94 1133.47,1405.72C1139.02,1363.97 1140.29,1343.02 1138.23,1328.41C1133.63,1297.3 1134.42,1289.99 1143.15,1281.26C1145.69,1278.72 1150.14,1276.18 1152.83,1275.55C1155.69,1274.91 1162.04,1272.37 1166.8,1269.99C1171.57,1267.45 1186.65,1260.31 1200.14,1253.96C1213.63,1247.77 1229.83,1240.31 1235.86,1237.45C1254.43,1228.72 1290.95,1214.43 1300.15,1212.21C1320.79,1207.29 1336.82,1214.9 1346.51,1234.11C1350.63,1242.21 1351.27,1244.91 1350.63,1253.16C1350.16,1262.05 1348.41,1265.7 1332.06,1295.39C1322.06,1313.33 1311.58,1332.06 1308.57,1336.98C1298.09,1354.76 1296.98,1360.16 1296.98,1398.42C1296.98,1431.44 1299.2,1480.65 1300.95,1489.22C1301.58,1492.24 1300.79,1494.78 1297.77,1498.43C1293.96,1502.88 1292.69,1503.35 1284.6,1503.35C1279.52,1503.35 1266.34,1502.24 1254.91,1500.97C1225.7,1497.48 1154.42,1495.89 1149.5,1498.43C1145.53,1500.65 1145.53,1502.08 1149.18,1519.23C1151.41,1529.07 1151.25,1538.91 1149.02,1541.13C1146.33,1543.83 1142.36,1543.52 1139.5,1540.34ZM1279.67,1485.89C1282.53,1484.3 1282.69,1482.4 1282.53,1459.22C1282.53,1445.57 1281.9,1417.63 1281.26,1397.15C1280.31,1369.37 1280.47,1358.1 1281.9,1352.7C1283.8,1345.24 1293.33,1325.87 1301.42,1312.85C1303.81,1308.88 1307.14,1303.33 1308.88,1300.31C1310.63,1297.45 1314.92,1290.63 1318.25,1285.23C1334.76,1259.51 1336.98,1250.31 1329.36,1240.15C1324.12,1233.48 1316.98,1230.3 1306.98,1230.3C1296.18,1230.3 1289.36,1232.53 1266.82,1243C1255.86,1248.08 1232.68,1258.88 1215.22,1266.82C1197.76,1274.91 1181.41,1282.69 1178.71,1284.28C1176.17,1285.87 1171.41,1287.93 1168.39,1288.88C1161.57,1290.95 1154.42,1297.3 1153.15,1302.22C1152.68,1304.28 1153.79,1310.31 1155.69,1315.55C1158.87,1324.76 1158.87,1326.66 1157.44,1348.89C1156.49,1361.75 1154.74,1381.75 1153.47,1393.02C1152.2,1404.45 1150.61,1427.31 1149.98,1443.82C1149.02,1470.81 1149.18,1474.3 1151.56,1476.21C1153.31,1477.63 1162.68,1478.75 1181.41,1479.86C1203.32,1480.97 1269.2,1486.21 1275.23,1487.32C1276.02,1487.32 1277.93,1486.68 1279.67,1485.89Z"
   style="fill:white;fill-rule:nonzero;"
   id="path32" />
            <path
   d="M1265.23,1443.19C1262.69,1438.42 1263.32,1427.79 1266.18,1425.41C1269.83,1422.39 1273.8,1425.57 1274.44,1432.23C1275.39,1443.19 1269.2,1450.49 1265.23,1443.19Z"
   style="fill:white;fill-rule:nonzero;"
   id="path33" />
            <path
   d="M1264.43,1399.53C1263.16,1396.51 1262.05,1392.23 1262.05,1390.32C1262.05,1388.26 1260.94,1382.7 1259.67,1377.94C1256.02,1364.45 1259.99,1352.86 1267.77,1354.44C1271.9,1355.24 1273.33,1364.29 1272.85,1385.88C1272.37,1401.75 1272.06,1404.13 1269.52,1404.61C1267.61,1405.09 1266.02,1403.5 1264.43,1399.53Z"
   style="fill:white;fill-rule:nonzero;"
   id="path34" />
            <path
   d="M926.141,1519.07C923.918,1516.53 923.125,1513.35 923.125,1505.89C923.125,1497.48 924.077,1494.14 929.792,1482.56C934.396,1473.51 937.095,1465.57 938.047,1458.11C940.428,1442.55 943.445,1369.68 942.651,1349.52L942.175,1332.7L935.348,1323.17C931.697,1317.93 922.49,1304.6 914.711,1293.49C907.091,1282.53 899.789,1272.21 898.36,1270.47C894.867,1266.5 889.47,1253.01 888.2,1244.91C886.612,1235.07 889.787,1223.8 895.979,1217.76C902.011,1211.89 920.585,1205.22 934.237,1203.95C944.556,1203 956.621,1205.38 971.543,1211.25C976.306,1213.16 982.656,1215.38 985.513,1216.17C988.371,1217.13 1002.82,1222.37 1017.74,1227.92C1056.63,1242.69 1085.84,1259.2 1090.45,1269.36C1092.67,1274.44 1096.95,1301.27 1096.95,1310.95C1096.95,1314.76 1095.84,1320 1094.26,1322.85C1090.13,1330.95 1089.97,1353.97 1093.46,1399.37C1095.37,1422.07 1097.27,1450.01 1097.75,1461.28C1098.7,1481.13 1098.54,1482.24 1095.37,1485.1C1092.03,1488.11 1088.38,1488.27 1024.88,1489.22C959.954,1490.18 953.922,1490.49 946.62,1494.14C942.492,1496.21 938.206,1506.05 938.206,1513.35C938.206,1522.4 931.856,1525.26 926.141,1519.07ZM991.387,1471.6C1001.86,1470.81 1023.93,1470.02 1040.28,1470.02C1071.71,1470.02 1077.43,1468.9 1080.92,1462.24C1082.35,1459.54 1081.71,1446.04 1078.86,1416.04C1078.38,1411.28 1076.79,1388.26 1075.37,1365.08L1072.67,1322.85L1076.95,1315.71C1081.71,1307.46 1082.19,1300.47 1078.7,1288.41C1075.21,1276.5 1070.6,1272.53 1042.19,1257.61C1025.99,1249.04 1002.34,1239.67 971.543,1229.51C945.985,1221.1 936.301,1220.14 922.49,1224.75C910.266,1228.72 906.456,1232.53 906.456,1240.31C906.456,1243.96 907.567,1249.19 908.996,1251.74C910.425,1254.43 913.282,1259.67 915.187,1263.64C917.251,1267.61 922.49,1275.87 926.776,1281.9C931.221,1288.09 936.46,1295.39 938.523,1298.25C940.587,1301.27 945.508,1307.93 949.636,1313.17C953.922,1318.57 957.732,1325.39 958.208,1328.57C959.954,1337.62 957.414,1431.12 955.033,1449.38C953.605,1459.86 953.287,1467 954.24,1468.75C956.621,1473.03 960.748,1474.78 966.781,1473.98C969.797,1473.51 980.909,1472.4 991.387,1471.6Z"
   style="fill:white;fill-rule:nonzero;"
   id="path35" />
        </g>
    </g>
</svg>
