<?xml version="1.0" encoding="UTF-8" standalone="no"?><!DOCTYPE svg PUBLIC "-//W3C//DTD SVG 1.1//EN" "http://www.w3.org/Graphics/SVG/1.1/DTD/svg11.dtd"><svg width="100%" height="100%" viewBox="0 0 846 234" version="1.1" xmlns="http://www.w3.org/2000/svg" xmlns:xlink="http://www.w3.org/1999/xlink" xml:space="preserve" xmlns:serif="http://www.serif.com/" style="fill-rule:evenodd;clip-rule:evenodd;stroke-linejoin:round;stroke-miterlimit:2;"><g><g transform="matrix(4.16667,0,0,4.16667,1.15063,-31.3798)"><text x="58.753px" y="32.87px" style="font-family:'EuphemiaUCAS-Bold', 'Euphemia UCAS', sans-serif;font-weight:700;font-size:20px;">ᓇᒻᒥᓂᐃᓕᕗᑦ</text><text x="58.753px" y="53.69px" style="font-family:'EuphemiaUCAS-Bold', 'Euphemia UCAS', sans-serif;font-weight:700;font-size:20px;">ᑭᒥᑦᑎᐃᑦ</text></g><path d="M84.594,54.715c-16.43,16.43 -25.661,38.715 -25.661,61.952c-0,48.355 39.258,87.613 87.613,87.613c48.356,0 87.614,-39.258 87.614,-87.613c0,-23.237 -9.231,-45.522 -25.661,-61.952l-30.976,30.976c8.215,8.215 12.83,19.357 12.83,30.976c0,24.177 -19.629,43.806 -43.807,43.806c-24.177,0 -43.806,-19.629 -43.806,-43.806c-0,-11.619 4.615,-22.761 12.83,-30.976l-30.976,-30.976Z" style="fill:#71cecb;"/></g></svg>