<?xml version="1.0" encoding="UTF-8" standalone="no"?><!DOCTYPE svg PUBLIC "-//W3C//DTD SVG 1.1//EN" "http://www.w3.org/Graphics/SVG/1.1/DTD/svg11.dtd"><svg width="100%" height="100%" viewBox="0 0 2115 2104" version="1.1" xmlns="http://www.w3.org/2000/svg" xmlns:xlink="http://www.w3.org/1999/xlink" xml:space="preserve" xmlns:serif="http://www.serif.com/" style="fill-rule:evenodd;clip-rule:evenodd;stroke-linejoin:round;stroke-miterlimit:2;"><g id="Layer-1" serif:id="Layer 1"><g id="g3070"><path id="path3080" d="M1046.75,0l-523.438,524.089l-523.307,524.088l14.062,15.365l-0.911,-0.339l0.938,0.937l0.026,-0.859l72.604,79.687l49.349,53.907c74.902,81.799 308.325,319.198 518.62,527.604c141.889,140.614 270.397,263.788 342.708,329.166l47.917,47.917l3.776,-3.515c4.417,3.282 7.699,5.338 8.854,5.338c11.538,0 254.027,-233.344 538.802,-518.49l517.708,-518.359l-280.338,-280.078c-59.297,-59.975 -124.811,-125.341 -192.448,-192.317l-61.068,-60.938l-533.854,-533.203Zm141.276,200.391c14.957,1.226 159.747,136.087 324.739,296.614c0.909,0.884 1.825,1.849 2.735,2.735c36.676,36.649 74.404,74.477 113.802,114.192c84.35,85.028 162.591,162.819 230.469,229.688c87.185,90.019 151.051,159.541 162.109,179.427c20.972,37.712 -72.014,147.494 -413.932,488.802l-426.823,426.172c6.154,-19.743 21.901,-57.557 42.969,-103.776l63.02,-129.948c73.927,-152.461 126.843,-312.492 137.5,-415.755l17.318,-167.969l-583.984,-24.74c-353.839,-14.968 -800.676,-43.204 -800.676,-43.204c-0,-0 448.358,-25.327 634.4,-28.41c127.595,-2.115 346.754,-12.772 487.109,-23.698c68.481,-5.331 118.158,-9.194 154.818,-13.802l104.687,-3.776l0.469,-16.224c4.823,-11.954 0.546,-38.187 -4.766,-72.578c-0.012,-0.082 0.013,-0.179 0,-0.261c-1.064,-120.174 -110.77,-458.364 -184.895,-569.14c-34.152,-51.039 -62.247,-106.41 -62.37,-123.177c-0.004,-0.807 0.455,-1.242 1.302,-1.172Zm250.26,783.593c0,0 4.399,71.796 6.953,72.735c0,-0 -3.416,68.6 -3.75,63.151c8.175,5.932 57.551,-8.016 78.178,-9.323c0.173,0.012 0.346,-0.013 0.52,-0c64.213,-8.773 237.674,-39.066 392.552,-57.761c199.586,-24.091 127.529,-14.407 -209.062,-45.859c-61.59,-5.755 -263.414,-21.465 -265.391,-22.943Z" style="fill:#00457c;fill-rule:nonzero;"/></g></g></svg>