<?xml version="1.0" encoding="UTF-8" standalone="no"?><!DOCTYPE svg PUBLIC "-//W3C//DTD SVG 1.1//EN" "http://www.w3.org/Graphics/SVG/1.1/DTD/svg11.dtd"><svg width="100%" height="100%" viewBox="0 0 671 917" version="1.1" xmlns="http://www.w3.org/2000/svg" xmlns:xlink="http://www.w3.org/1999/xlink" xml:space="preserve" xmlns:serif="http://www.serif.com/" style="fill-rule:evenodd;clip-rule:evenodd;stroke-linejoin:round;stroke-miterlimit:2;"><g id="_-1a171bff" serif:id="#1a171bff"><path d="M233.625,0l8.042,0c15.916,17.083 29.583,36.25 41.458,56.375c-5.667,4.792 -11.292,9.583 -16.917,14.417c-29.958,-9.25 -43.666,-39.209 -60.666,-62.792c9.333,-2.792 18.666,-5.625 28.083,-8Z" style="fill:#1a171b;fill-rule:nonzero;"/><path d="M513.583,52.083c10.959,-4.166 25.625,-6.083 34.334,3.584c6.625,12.208 -5.959,21.291 -13.459,28.916c-13.75,12.542 -23.958,28.709 -38.791,40.042c-12,2.75 -37.042,-7 -27.417,-22.667c14.833,-16.791 28.75,-34.875 45.333,-49.875Z" style="fill:#1a171b;fill-rule:nonzero;"/><path d="M350.125,154.333c20.083,-5.583 43.667,-7.916 61.542,5c14.541,9.667 16.916,28.792 17.25,44.875c-0.042,31.917 -9.417,62.792 -14.459,94.125c13.459,-0.791 27.125,0.334 38.792,7.709c14.042,-2.542 28.208,-5.5 42.542,-4.834c18.708,0.917 35.208,16.875 36.458,35.625c3.958,41.417 -4.708,84.209 -25.083,120.584c-8.209,12.708 -6.959,28.416 -8.792,42.833c-1.083,18.625 -7.375,37.75 -0.667,56.042c18.5,62.041 32.167,125.458 41.417,189.541c5.833,47.542 33.667,90.792 30.333,139.709c-44.75,-2.75 -89.708,6.333 -131.875,20.833c-44.416,3.208 -88.791,8 -133.291,10.292l-11.209,-0c-8.166,-3.792 -16.041,-8.209 -23.958,-12.542c-3.208,-24.5 -7.125,-49.083 -4.375,-73.833c-2.583,-32.334 1.583,-65.209 -5.625,-97.167c-5.417,-24.625 -4.458,-49.958 -2.75,-74.958c-0.542,-27.125 -0.917,-54.417 -4.542,-81.334c-2.625,-23.416 -21.875,-39.208 -31.666,-59.5c-12.5,-27.541 -34.625,-48.75 -50.75,-74c-15.375,-20.458 -23.125,-45.125 -29.5,-69.583c12,-20.083 31.5,-33.292 52.583,-42.417c-9.333,-35.375 -22.292,-70.041 -26.625,-106.5c-1.417,-13.583 -0.542,-30.5 12.083,-38.791c19.459,-11.792 44.667,-21.042 66.5,-9.875c33.75,12.875 37.084,53.458 52.417,81.458c5.25,-26.417 9.625,-53.292 19.917,-78.333c5.083,-14.125 20,-20.875 33.333,-24.959m6.125,35.084c-14,22.75 -17.458,49.666 -21.833,75.458c-3.625,16.917 -6.167,34.042 -8.584,51.125c14,2.375 27.834,5.667 41.167,10.5c9.792,-48.167 30.208,-96.792 20.917,-146.625c-10.75,1.417 -23.834,0.708 -31.667,9.542m-148.208,14.75c-12.542,8.333 -8.667,24.916 -5.917,37.25c7.458,27.458 14.333,55.083 22.708,82.333c17.709,-0.875 35.292,-3.167 52.625,-6.917c-10.333,-36.166 -24.333,-71.041 -38.833,-105.666c-4.958,-11.292 -21.583,-16.834 -30.583,-7m197.541,125.375c-7.541,25.791 -5.333,53.083 -10.541,79.291c-0.667,10 -3.584,27.25 9.375,29.959c15.916,-10.125 17.708,-30.459 21.083,-47.292c2.083,-15.25 6.833,-30.167 7.5,-45.625c0.417,-11.5 -7.792,-20.333 -14.708,-28.458c-4.209,4.041 -9.625,7.041 -12.709,12.125m65.042,2.708c2.375,28.583 -6.292,56.292 -11.208,84.125c-1.542,12.542 -7.834,23.542 -13.959,34.292c7.75,0.791 15.625,2.791 23.375,1.25c18.834,-28.667 25.5,-63.792 25.917,-97.667c-0.25,-8.292 1.542,-17.458 -3.083,-24.917c-7.167,-0.791 -14.125,1.584 -21.042,2.917m-246.125,27.25c-12.042,-2.417 -23.958,-0.208 -34.208,6.583c-5.709,6.875 -14.667,14.334 -9.959,24.417c11.292,33.875 37.459,59.667 57.292,88.625c12.208,15.083 18.917,33.625 30.5,49.083c6.25,9.417 18.5,8.375 28.292,10.334c22.25,1.125 44.166,-3.709 66.291,-5.25c32,-1.959 63.292,-9.875 94.167,-18.25c2.042,-11.917 3.917,-23.834 5.5,-35.792c-23.458,-5.625 -46.417,-13.125 -70.625,-15.083c-23.375,-2.834 -38.25,-24.625 -37.333,-47.292c-27.834,5.667 -55.875,10.625 -84,14.292c-16.75,2.666 -33.042,-4.084 -46.209,-13.917c20.5,-15.5 47.125,-12.5 71.167,-15.583c15.5,-2.167 31.292,-2.625 46.708,-5.417c12.292,-10.417 11.584,-31.917 1.292,-43.625c-21.417,-9.5 -45.625,-3.792 -68.167,-2.958c-16.958,2.416 -35.708,-0.042 -50.708,9.833m76.667,212.167c9.583,26.083 34.791,39.666 57.458,52.708c19.042,10.042 44.25,10.458 61,-4.417c21.375,-14.083 23.333,-42.166 23.75,-65.333c-46.542,11.833 -94.667,12.25 -142.208,17.042Z" style="fill:#1a171b;fill-rule:nonzero;"/><path d="M0,204.958c23.833,-13.041 50.5,-2.5 75.042,2.375c8.375,0.792 13,7.959 17.75,13.917c-3.625,5.917 -7.167,11.917 -10.667,17.917c-28.25,-2.542 -56.958,-7.25 -82.125,-21.042l0,-13.167Z" style="fill:#1a171b;fill-rule:nonzero;"/><path d="M582.292,362.917c3.833,-11.959 18.125,-15.709 29.291,-14.584c20.042,2.75 40.625,5.042 59.25,13.5l0,13.959c-5.125,3.583 -9.625,9.875 -16.416,9.75c-18.125,-0.25 -36.167,-3.5 -53.709,-8c-7.5,-2.375 -17.375,-5.375 -18.416,-14.625Z" style="fill:#1a171b;fill-rule:nonzero;"/><path d="M22.292,451.292c18.833,-9.084 36.416,-21.334 56.791,-26.625c7.625,-2.625 15,1.666 22.042,3.916c-2.5,9.25 -1.833,22.167 -12.417,26.459c-18.333,9.916 -37.5,18.208 -55.791,28.208c-8.709,-3.542 -21.709,-2.917 -26.167,-12.458c-4.25,-10.792 8.458,-15 15.542,-19.5Z" style="fill:#1a171b;fill-rule:nonzero;"/></g><g id="_-fdcf67ff" serif:id="#fdcf67ff"><path d="M356.25,189.417c7.833,-8.834 20.917,-8.125 31.667,-9.542c9.291,49.833 -11.125,98.458 -20.917,146.625c-13.333,-4.833 -27.167,-8.125 -41.167,-10.5c2.417,-17.083 4.959,-34.208 8.584,-51.125c4.375,-25.792 7.833,-52.708 21.833,-75.458Z" style="fill:#3f8e77;fill-rule:nonzero;"/><path d="M208.042,204.167c9,-9.834 25.625,-4.292 30.583,7c14.5,34.625 28.5,69.5 38.833,105.666c-17.333,3.75 -34.916,6.042 -52.625,6.917c-8.375,-27.25 -15.25,-54.875 -22.708,-82.333c-2.75,-12.334 -6.625,-28.917 5.917,-37.25Z" style="fill:#3f8e77;fill-rule:nonzero;"/><path d="M405.583,329.542c3.084,-5.084 8.5,-8.084 12.709,-12.125c6.916,8.125 15.125,16.958 14.708,28.458c-0.667,15.458 -5.417,30.375 -7.5,45.625c-3.375,16.833 -5.167,37.167 -21.083,47.292c-12.959,-2.709 -10.042,-19.959 -9.375,-29.959c5.208,-26.208 3,-53.5 10.541,-79.291Z" style="fill:#3f8e77;fill-rule:nonzero;"/><path d="M470.625,332.25c6.917,-1.333 13.875,-3.708 21.042,-2.917c4.625,7.459 2.833,16.625 3.083,24.917c-0.417,33.875 -7.083,69 -25.917,97.667c-7.75,1.541 -15.625,-0.459 -23.375,-1.25c6.125,-10.75 12.417,-21.75 13.959,-34.292c4.916,-27.833 13.583,-55.542 11.208,-84.125Z" style="fill:#3f8e77;fill-rule:nonzero;"/><path d="M224.5,359.5c15,-9.875 33.75,-7.417 50.708,-9.833c22.542,-0.834 46.75,-6.542 68.167,2.958c10.292,11.708 11,33.208 -1.292,43.625c-15.416,2.792 -31.208,3.25 -46.708,5.417c-24.042,3.083 -50.667,0.083 -71.167,15.583c13.167,9.833 29.459,16.583 46.209,13.917c28.125,-3.667 56.166,-8.625 84,-14.292c-0.917,22.667 13.958,44.458 37.333,47.292c24.208,1.958 47.167,9.458 70.625,15.083c-1.583,11.958 -3.458,23.875 -5.5,35.792c-30.875,8.375 -62.167,16.291 -94.167,18.25c-22.125,1.541 -44.041,6.375 -66.291,5.25c-33.5,-58.625 -85.459,-106.875 -106.125,-172.459c10.25,-6.791 22.166,-9 34.208,-6.583Z" style="fill:#3f8e77;fill-rule:nonzero;"/></g><g id="_-2aab8cff" serif:id="#2aab8cff"><path d="M301.167,571.667c47.541,-4.792 95.666,-5.209 142.208,-17.042c-0.417,23.167 -2.375,51.25 -23.75,65.333c-16.75,14.875 -41.958,14.459 -61,4.417c-22.667,-13.042 -47.875,-26.625 -57.458,-52.708Z" style="fill:#3f8e77;fill-rule:nonzero;"/></g></svg>