<?xml version="1.0" encoding="UTF-8" standalone="no"?>
<!DOCTYPE svg PUBLIC "-//W3C//DTD SVG 1.1//EN" "http://www.w3.org/Graphics/SVG/1.1/DTD/svg11.dtd">
<svg width="100%" height="100%" viewBox="0 0 134 129" version="1.1" xmlns="http://www.w3.org/2000/svg" xmlns:xlink="http://www.w3.org/1999/xlink" xml:space="preserve" xmlns:serif="http://www.serif.com/" style="fill-rule:evenodd;clip-rule:evenodd;stroke-linejoin:round;stroke-miterlimit:2;">
    <g id="g7543">
        <g id="g7545">
            <path id="path7553" d="M105.796,53.29C106.291,57.409 106.521,61.115 106.148,65.288C104.733,81.054 97.397,98.281 85.485,111.046C84.287,112.326 83.074,113.532 81.841,114.664C81.747,114.725 81.65,114.785 81.556,114.845C95.958,112.453 111.439,101.926 122.123,85.68C138.62,60.592 137.604,31.155 119.888,20.119C115.302,17.261 110.024,15.918 104.448,15.925C104.448,15.925 104.448,15.959 104.481,15.992C107.4,21.209 108.139,28.045 106.832,35.267C103.113,55.937 80.648,74.183 60.411,77.082C76.981,76.574 95.931,67.21 105.808,53.282L105.796,53.29ZM8.218,65.892C2.372,73.235 -0.663,81.867 0.122,90.782C2.209,114.257 30.08,131.073 62.173,128.22C76.806,126.919 99.245,113.879 91.441,116.249C79.524,119.867 66.36,120.003 54.579,116.444C78.568,113.53 99.726,89.738 101.217,65.429C95.737,71.236 88.981,76.276 81.286,79.954C56.28,91.899 30.609,85.076 24.152,64.739C21.97,57.869 22.248,50.328 24.539,42.882C23.278,85.612 83.955,73.336 96.725,43.39C100.369,34.826 100.29,26.135 95.364,20.295C89.991,13.934 78.827,11.738 67.614,13.358C50.229,15.871 32.248,29.17 36.754,46.608C38.116,51.866 41.72,55.795 48.326,53.925C59.362,50.794 75.642,35.842 74.957,29.583C74.565,26 71.393,25.186 68.122,25.349C62.329,25.635 55.378,28.723 51.557,33.038C50.1,34.672 49.958,36.399 50.14,37.998C50.244,38.919 50.79,39.894 51.219,40.842C53.441,45.728 45.181,49.013 44.287,42.388C42.804,31.324 57.215,22.13 66.374,20.282C69.456,19.657 72.384,19.557 75.032,19.895C95.073,23.044 89.625,44.766 69.829,56.832C51.881,66.837 27.716,64.744 28.908,40.138C29.674,24.258 44.531,12.47 57.83,6.115C64.863,2.754 71.943,0.87 78.636,0.362C77.139,0.188 75.608,0.07 74.05,0.024C45.934,-0.815 18.651,20.552 13.312,47.612C7.974,74.663 26.572,97.401 54.688,98.254C61.889,98.472 69.029,97.224 75.771,94.799C49.911,109.257 10.331,101.14 8.218,65.89" style="fill:rgb(184,54,38);"/>
        </g>
    </g>
</svg>
