<?xml version="1.0" encoding="UTF-8" standalone="no"?><!DOCTYPE svg PUBLIC "-//W3C//DTD SVG 1.1//EN" "http://www.w3.org/Graphics/SVG/1.1/DTD/svg11.dtd"><svg width="100%" height="100%" viewBox="0 0 150 175" version="1.1" xmlns="http://www.w3.org/2000/svg" xmlns:xlink="http://www.w3.org/1999/xlink" xml:space="preserve" xmlns:serif="http://www.serif.com/" style="fill-rule:evenodd;clip-rule:evenodd;stroke-linejoin:round;stroke-miterlimit:2;"><g><g><g><g id="レイヤー-1" serif:id="レイヤー 1"><g id="g3810"><path id="path3789" d="M83.995,-0c-15.114,11.616 -44.194,50.406 -48.941,71.938c18.036,-18.993 39.517,-27.887 74.296,-25.945l-25.355,-45.993Z" style="fill:#b4dc74;fill-rule:nonzero;"/><path id="path3791" d="M4.687,117.046c13.501,-49.957 70.54,-61.99 117.635,-47.172l26.83,47.762c-41.363,-24.997 -97.496,-32.168 -144.465,-0.59Z" style="fill:#b4dc74;fill-rule:nonzero;"/><path id="path3793" d="M147.788,119.35c-45.949,32.497 -97.44,28.169 -98.449,9.727c-0.34,-6.217 2.809,-13.874 22.568,-23.234c-4.659,8.717 -4.613,14.976 -0.36,17.69c13.403,8.551 46.304,1.631 76.241,-4.183Z" style="fill:#b4dc74;fill-rule:nonzero;"/><path id="path3795" d="M148.529,122.125c-21.794,24.677 -69.464,52.444 -105.485,52.064c-32.6,-0.345 -43.021,-16.004 -43.044,-26.765c-0.029,-13.796 10.979,-32.477 58.192,-40.568c-54.763,39.077 -28.701,55.159 24.178,42.974c25.728,-5.733 51.326,-16.329 66.159,-27.705Z" style="fill:#b4dc74;fill-rule:nonzero;"/></g></g></g></g></g></svg>